<svg xmlns="http://www.w3.org/2000/svg" xmlns:xlink="http://www.w3.org/1999/xlink" width="400" zoomAndPan="magnify" viewBox="0 0 300 299.999988" height="400" preserveAspectRatio="xMidYMid meet" version="1.0"><defs><g/></defs><g fill="#000000" fill-opacity="0.4"><g transform="translate(104.237385, 250.39618)"><g><path d="M 75.300781 15.449219 C 69 0.898438 63 -13.648438 57 -28.199219 C 55.949219 -30.75 55.351562 -33.449219 54.898438 -36.148438 C 54.449219 -38.101562 55.351562 -39.75 57.300781 -40.5 C 59.25 -41.25 61.199219 -42 63.148438 -42.601562 C 93 -51.898438 116.851562 -69.601562 136.5 -93.449219 C 141.449219 -99.449219 145.800781 -105.898438 149.101562 -112.949219 C 151.5 -117.601562 153.300781 -122.550781 153.898438 -127.949219 C 154.949219 -138.449219 150.300781 -144.300781 139.800781 -145.949219 C 133.949219 -146.699219 128.398438 -145.800781 123 -143.699219 C 117 -141.300781 111.601562 -137.851562 106.5 -133.949219 C 97.5 -127.199219 89.25 -119.550781 81.75 -111.300781 C 70.351562 -98.699219 60.148438 -85.351562 50.25 -71.550781 C 48.898438 -69.75 47.550781 -67.949219 46.351562 -66.300781 C 46.050781 -68.550781 46.648438 -70.5 47.398438 -72.300781 C 55.648438 -91.351562 64.050781 -110.398438 72.449219 -129.300781 C 77.101562 -139.800781 81.898438 -150.148438 86.699219 -160.5 C 88.199219 -163.648438 90.148438 -166.5 93.449219 -167.851562 C 93.75 -168 93.601562 -168.601562 93.75 -169.351562 C 89.699219 -170.851562 86.25 -170.101562 83.398438 -166.648438 C 81.75 -164.550781 80.101562 -162.300781 78.75 -159.898438 C 76.199219 -155.398438 73.800781 -150.75 71.550781 -145.949219 C 57.300781 -115.050781 43.199219 -84 29.101562 -52.949219 C 19.199219 -30.898438 9.449219 -8.699219 -0.300781 13.351562 C -1.351562 15.601562 -2.851562 17.851562 -2.550781 20.550781 C -0.449219 22.648438 2.101562 22.351562 4.648438 22.050781 C 6.601562 21.75 7.800781 20.25 8.699219 18.75 C 10.050781 16.5 11.398438 14.398438 12.601562 12.148438 C 21.148438 -2.398438 29.550781 -17.101562 37.949219 -31.648438 C 38.699219 -33 39.75 -34.050781 40.648438 -35.25 C 43.199219 -29.101562 45 -23.25 47.851562 -17.699219 C 55.351562 -2.851562 63 12 70.800781 26.699219 C 72.898438 30.75 75.601562 34.5 78.300781 38.25 C 79.800781 40.199219 81.601562 42 83.398438 43.800781 C 84.75 45 86.550781 45.601562 88.800781 44.25 C 84.148438 34.351562 79.5 25.050781 75.300781 15.449219 Z M 48.898438 -49.800781 C 62.101562 -70.5 77.101562 -90.148438 93.601562 -108.449219 C 101.25 -116.851562 109.648438 -124.800781 118.949219 -131.398438 C 123 -134.398438 127.351562 -136.949219 131.851562 -139.050781 C 136.050781 -141.148438 138.898438 -139.648438 140.101562 -135.148438 C 140.699219 -132.898438 140.699219 -130.648438 140.550781 -128.398438 C 140.101562 -122.25 137.851562 -116.851562 135.148438 -111.449219 C 128.25 -97.351562 118.351562 -85.5 106.800781 -75 C 91.800781 -61.351562 74.851562 -51.449219 55.199219 -46.351562 C 52.351562 -45.601562 49.648438 -44.851562 46.800781 -44.101562 C 46.648438 -43.949219 46.351562 -44.25 45.898438 -44.550781 C 46.800781 -46.199219 47.699219 -48 48.898438 -49.800781 Z M 48.898438 -49.800781 "/></g></g></g><g fill="#000000" fill-opacity="1"><g transform="translate(97.608257, 243.767054)"><g><path d="M 75.300781 15.449219 C 69 0.898438 63 -13.648438 57 -28.199219 C 55.949219 -30.75 55.351562 -33.449219 54.898438 -36.148438 C 54.449219 -38.101562 55.351562 -39.75 57.300781 -40.5 C 59.25 -41.25 61.199219 -42 63.148438 -42.601562 C 93 -51.898438 116.851562 -69.601562 136.5 -93.449219 C 141.449219 -99.449219 145.800781 -105.898438 149.101562 -112.949219 C 151.5 -117.601562 153.300781 -122.550781 153.898438 -127.949219 C 154.949219 -138.449219 150.300781 -144.300781 139.800781 -145.949219 C 133.949219 -146.699219 128.398438 -145.800781 123 -143.699219 C 117 -141.300781 111.601562 -137.851562 106.5 -133.949219 C 97.5 -127.199219 89.25 -119.550781 81.75 -111.300781 C 70.351562 -98.699219 60.148438 -85.351562 50.25 -71.550781 C 48.898438 -69.75 47.550781 -67.949219 46.351562 -66.300781 C 46.050781 -68.550781 46.648438 -70.5 47.398438 -72.300781 C 55.648438 -91.351562 64.050781 -110.398438 72.449219 -129.300781 C 77.101562 -139.800781 81.898438 -150.148438 86.699219 -160.5 C 88.199219 -163.648438 90.148438 -166.5 93.449219 -167.851562 C 93.75 -168 93.601562 -168.601562 93.75 -169.351562 C 89.699219 -170.851562 86.25 -170.101562 83.398438 -166.648438 C 81.75 -164.550781 80.101562 -162.300781 78.75 -159.898438 C 76.199219 -155.398438 73.800781 -150.75 71.550781 -145.949219 C 57.300781 -115.050781 43.199219 -84 29.101562 -52.949219 C 19.199219 -30.898438 9.449219 -8.699219 -0.300781 13.351562 C -1.351562 15.601562 -2.851562 17.851562 -2.550781 20.550781 C -0.449219 22.648438 2.101562 22.351562 4.648438 22.050781 C 6.601562 21.75 7.800781 20.25 8.699219 18.75 C 10.050781 16.5 11.398438 14.398438 12.601562 12.148438 C 21.148438 -2.398438 29.550781 -17.101562 37.949219 -31.648438 C 38.699219 -33 39.75 -34.050781 40.648438 -35.25 C 43.199219 -29.101562 45 -23.25 47.851562 -17.699219 C 55.351562 -2.851562 63 12 70.800781 26.699219 C 72.898438 30.75 75.601562 34.5 78.300781 38.25 C 79.800781 40.199219 81.601562 42 83.398438 43.800781 C 84.75 45 86.550781 45.601562 88.800781 44.25 C 84.148438 34.351562 79.5 25.050781 75.300781 15.449219 Z M 48.898438 -49.800781 C 62.101562 -70.5 77.101562 -90.148438 93.601562 -108.449219 C 101.25 -116.851562 109.648438 -124.800781 118.949219 -131.398438 C 123 -134.398438 127.351562 -136.949219 131.851562 -139.050781 C 136.050781 -141.148438 138.898438 -139.648438 140.101562 -135.148438 C 140.699219 -132.898438 140.699219 -130.648438 140.550781 -128.398438 C 140.101562 -122.25 137.851562 -116.851562 135.148438 -111.449219 C 128.25 -97.351562 118.351562 -85.5 106.800781 -75 C 91.800781 -61.351562 74.851562 -51.449219 55.199219 -46.351562 C 52.351562 -45.601562 49.648438 -44.851562 46.800781 -44.101562 C 46.648438 -43.949219 46.351562 -44.25 45.898438 -44.550781 C 46.800781 -46.199219 47.699219 -48 48.898438 -49.800781 Z M 48.898438 -49.800781 "/></g></g></g><g fill="#000000" fill-opacity="0.4"><g transform="translate(73.978205, 160.088009)"><g><path d="M 127.199219 -125.398438 C 127.351562 -120 127.351562 -114.601562 126.601562 -109.351562 C 123.601562 -88.5 116.851562 -68.851562 109.199219 -49.5 C 107.699219 -45.601562 105.449219 -43.050781 102 -40.800781 C 76.5 -24.148438 52.800781 -5.25 30.449219 15.300781 C 25.5 19.800781 21.148438 24.898438 16.949219 30.148438 C 14.851562 32.851562 13.050781 36.300781 12 39.601562 C 10.050781 45 12.601562 48.601562 18.148438 49.648438 C 19.5 49.800781 20.699219 49.800781 22.050781 49.949219 C 27.898438 50.25 33.148438 48.300781 38.25 45.898438 C 46.050781 42.148438 52.949219 37.199219 59.550781 31.800781 C 82.5 12.898438 100.5 -10.050781 114.148438 -36.300781 C 117.148438 -42 121.199219 -45.601562 126.75 -48 C 129.300781 -49.050781 131.699219 -50.25 134.699219 -51.601562 C 130.800781 -54.898438 126.75 -50.398438 122.851562 -53.101562 C 123.75 -55.351562 124.648438 -57.601562 125.550781 -59.851562 C 132 -75.449219 137.550781 -91.050781 140.699219 -107.550781 C 142.050781 -115.050781 142.5 -122.398438 141.300781 -129.898438 C 139.949219 -139.199219 133.949219 -144.449219 124.648438 -144.898438 C 116.699219 -145.351562 110.101562 -142.351562 104.101562 -137.550781 C 97.050781 -131.851562 91.050781 -125.25 85.199219 -118.199219 C 75.898438 -106.949219 67.648438 -94.800781 59.851562 -82.351562 C 58.199219 -79.800781 56.398438 -77.25 54.449219 -74.101562 C 53.851562 -77.101562 55.050781 -78.898438 55.648438 -80.699219 C 58.199219 -88.351562 61.050781 -95.851562 63.300781 -103.351562 C 64.5 -107.851562 65.398438 -112.5 65.699219 -117 C 66 -121.648438 63.75 -124.050781 59.101562 -124.800781 C 54 -125.550781 49.199219 -124.949219 45 -121.949219 C 41.699219 -119.550781 38.398438 -117 35.550781 -114.148438 C 22.648438 -100.949219 12.898438 -85.648438 5.550781 -68.550781 C 4.648438 -66.300781 3.898438 -63.75 3.300781 -61.199219 C 2.699219 -58.800781 3.449219 -56.398438 5.398438 -55.050781 C 7.648438 -53.398438 10.050781 -53.398438 12.300781 -55.199219 C 11.101562 -60.300781 10.949219 -60.449219 12.75 -64.199219 C 21.75 -82.949219 34.050781 -99.300781 49.199219 -113.699219 C 49.949219 -114.300781 51 -114.601562 53.101562 -115.648438 C 52.199219 -111 51.75 -107.398438 50.851562 -103.949219 C 46.5 -87 41.101562 -70.351562 34.050781 -54.300781 C 24.75 -32.851562 15 -11.699219 5.398438 9.75 C 4.351562 12 3.449219 14.25 2.398438 16.5 C 7.949219 19.5 10.648438 19.351562 13.5 15.449219 C 17.25 10.199219 20.699219 4.800781 24.148438 -0.601562 C 31.949219 -13.648438 39.601562 -26.699219 47.398438 -39.75 C 60.601562 -61.5 73.949219 -83.25 89.398438 -103.5 C 96.148438 -112.199219 103.648438 -120.449219 111.148438 -128.550781 C 114.148438 -132 117.75 -135 122.398438 -137.25 C 126.148438 -133.648438 126.898438 -129.449219 127.199219 -125.398438 Z M 98.101562 -25.800781 C 85.800781 -3.148438 70.050781 16.648438 48.898438 31.648438 C 44.101562 35.101562 38.851562 37.949219 33.75 40.800781 C 31.648438 42 29.101562 42.75 27 43.5 C 25.199219 42 25.949219 40.800781 26.398438 39.75 C 28.949219 34.199219 32.550781 29.550781 36.601562 25.199219 C 48.300781 12.601562 61.050781 1.050781 74.398438 -9.898438 C 82.050781 -16.351562 89.851562 -22.5 97.648438 -28.800781 C 97.949219 -28.5 98.25 -28.199219 98.699219 -27.898438 C 98.398438 -27.148438 98.398438 -26.398438 98.101562 -25.800781 Z M 98.101562 -25.800781 "/></g></g></g><g fill="#000000" fill-opacity="1"><g transform="translate(67.349076, 153.458883)"><g><path d="M 127.199219 -125.398438 C 127.351562 -120 127.351562 -114.601562 126.601562 -109.351562 C 123.601562 -88.5 116.851562 -68.851562 109.199219 -49.5 C 107.699219 -45.601562 105.449219 -43.050781 102 -40.800781 C 76.5 -24.148438 52.800781 -5.25 30.449219 15.300781 C 25.5 19.800781 21.148438 24.898438 16.949219 30.148438 C 14.851562 32.851562 13.050781 36.300781 12 39.601562 C 10.050781 45 12.601562 48.601562 18.148438 49.648438 C 19.5 49.800781 20.699219 49.800781 22.050781 49.949219 C 27.898438 50.25 33.148438 48.300781 38.25 45.898438 C 46.050781 42.148438 52.949219 37.199219 59.550781 31.800781 C 82.5 12.898438 100.5 -10.050781 114.148438 -36.300781 C 117.148438 -42 121.199219 -45.601562 126.75 -48 C 129.300781 -49.050781 131.699219 -50.25 134.699219 -51.601562 C 130.800781 -54.898438 126.75 -50.398438 122.851562 -53.101562 C 123.75 -55.351562 124.648438 -57.601562 125.550781 -59.851562 C 132 -75.449219 137.550781 -91.050781 140.699219 -107.550781 C 142.050781 -115.050781 142.5 -122.398438 141.300781 -129.898438 C 139.949219 -139.199219 133.949219 -144.449219 124.648438 -144.898438 C 116.699219 -145.351562 110.101562 -142.351562 104.101562 -137.550781 C 97.050781 -131.851562 91.050781 -125.25 85.199219 -118.199219 C 75.898438 -106.949219 67.648438 -94.800781 59.851562 -82.351562 C 58.199219 -79.800781 56.398438 -77.25 54.449219 -74.101562 C 53.851562 -77.101562 55.050781 -78.898438 55.648438 -80.699219 C 58.199219 -88.351562 61.050781 -95.851562 63.300781 -103.351562 C 64.5 -107.851562 65.398438 -112.5 65.699219 -117 C 66 -121.648438 63.75 -124.050781 59.101562 -124.800781 C 54 -125.550781 49.199219 -124.949219 45 -121.949219 C 41.699219 -119.550781 38.398438 -117 35.550781 -114.148438 C 22.648438 -100.949219 12.898438 -85.648438 5.550781 -68.550781 C 4.648438 -66.300781 3.898438 -63.75 3.300781 -61.199219 C 2.699219 -58.800781 3.449219 -56.398438 5.398438 -55.050781 C 7.648438 -53.398438 10.050781 -53.398438 12.300781 -55.199219 C 11.101562 -60.300781 10.949219 -60.449219 12.75 -64.199219 C 21.75 -82.949219 34.050781 -99.300781 49.199219 -113.699219 C 49.949219 -114.300781 51 -114.601562 53.101562 -115.648438 C 52.199219 -111 51.75 -107.398438 50.851562 -103.949219 C 46.5 -87 41.101562 -70.351562 34.050781 -54.300781 C 24.75 -32.851562 15 -11.699219 5.398438 9.75 C 4.351562 12 3.449219 14.25 2.398438 16.5 C 7.949219 19.5 10.648438 19.351562 13.5 15.449219 C 17.25 10.199219 20.699219 4.800781 24.148438 -0.601562 C 31.949219 -13.648438 39.601562 -26.699219 47.398438 -39.75 C 60.601562 -61.5 73.949219 -83.25 89.398438 -103.5 C 96.148438 -112.199219 103.648438 -120.449219 111.148438 -128.550781 C 114.148438 -132 117.75 -135 122.398438 -137.25 C 126.148438 -133.648438 126.898438 -129.449219 127.199219 -125.398438 Z M 98.101562 -25.800781 C 85.800781 -3.148438 70.050781 16.648438 48.898438 31.648438 C 44.101562 35.101562 38.851562 37.949219 33.75 40.800781 C 31.648438 42 29.101562 42.75 27 43.5 C 25.199219 42 25.949219 40.800781 26.398438 39.75 C 28.949219 34.199219 32.550781 29.550781 36.601562 25.199219 C 48.300781 12.601562 61.050781 1.050781 74.398438 -9.898438 C 82.050781 -16.351562 89.851562 -22.5 97.648438 -28.800781 C 97.949219 -28.5 98.25 -28.199219 98.699219 -27.898438 C 98.398438 -27.148438 98.398438 -26.398438 98.101562 -25.800781 Z M 98.101562 -25.800781 "/></g></g></g></svg>